<?xml version="1.0" standalone="no"?>
<!DOCTYPE svg PUBLIC "-//W3C//DTD SVG 20010904//EN"
 "http://www.w3.org/TR/2001/REC-SVG-20010904/DTD/svg10.dtd">
<svg version="1.0" xmlns="http://www.w3.org/2000/svg"
 width="512.000000pt" height="512.000000pt" viewBox="0 0 512.000000 512.000000"
 preserveAspectRatio="xMidYMid meet">

<g transform="translate(0.000000,512.000000) scale(0.100000,-0.100000)"
fill="#1e90ff" stroke="none">
<path d="M2375 4820 c-462 -47 -909 -266 -1230 -601 -359 -376 -583 -822 -676
-1346 -26 -148 -37 -497 -20 -653 86 -790 531 -1431 1276 -1838 172 -95 189
-100 223 -75 49 36 42 63 -59 223 -192 304 -192 303 -172 297 10 -3 61 -24
113 -47 225 -100 464 -176 874 -277 287 -72 310 -76 335 -62 22 13 26 22 26
59 l0 45 -205 123 c-732 440 -953 596 -1211 852 -211 209 -333 383 -418 595
-83 208 -106 350 -98 605 6 199 31 334 92 509 140 399 427 714 825 905 220
105 409 153 646 163 436 17 744 -146 829 -441 14 -48 16 -83 11 -180 -3 -67
-8 -137 -12 -158 -8 -45 20 -78 67 -78 27 0 45 13 109 78 282 286 266 642 -41
926 -145 135 -371 254 -598 317 -197 53 -489 79 -686 59z m402 -145 c343 -45
631 -172 819 -362 86 -87 149 -201 164 -300 13 -78 -6 -180 -47 -255 l-28 -52
-3 40 c-13 196 -105 373 -255 490 -437 342 -1262 241 -1817 -221 -418 -348
-638 -859 -617 -1430 9 -248 57 -428 173 -655 206 -401 541 -711 1229 -1139
98 -61 174 -111 168 -111 -16 0 -222 59 -338 97 -167 54 -393 147 -559 230
-161 81 -186 85 -219 41 -26 -35 -27 -34 126 -274 157 -247 151 -234 91 -199
-362 209 -708 583 -880 950 -146 313 -208 598 -208 950 0 382 73 692 244 1040
214 436 549 788 934 982 323 163 672 223 1023 178z"/>
<path d="M2720 3928 c-114 -45 -220 -188 -220 -297 l0 -39 -97 -7 c-302 -20
-548 -89 -827 -233 -137 -70 -157 -90 -140 -140 18 -51 24 -52 511 -52 l451 0
47 -87 c26 -49 65 -120 86 -159 l39 -71 -221 -104 c-279 -131 -281 -133 -321
-308 l-13 -54 -198 -57 c-108 -32 -212 -68 -231 -80 -98 -68 -120 -212 -45
-304 62 -74 347 -292 634 -483 342 -229 644 -402 1040 -598 555 -275 970 -418
1220 -419 87 -1 106 2 150 24 121 61 128 178 20 340 -135 203 -505 518 -970
825 -110 73 -221 144 -246 159 -44 25 -50 34 -109 163 l-62 137 73 181 c72
175 74 182 74 265 0 101 -18 146 -89 231 l-47 57 17 61 c13 47 21 60 33 57
201 -60 857 -236 878 -236 36 0 63 27 63 62 0 73 -267 321 -492 456 -140 84
-388 198 -516 237 -22 6 -23 10 -15 43 4 21 8 71 7 112 -1 130 -67 237 -186
300 -56 30 -73 34 -153 37 -74 3 -100 -1 -145 -19z m197 -123 c59 -18 123 -80
143 -139 56 -172 -116 -336 -284 -272 -172 66 -191 310 -31 394 63 33 105 37
172 17z m-363 -399 c33 -56 86 -103 156 -135 45 -21 70 -25 140 -26 73 0 94 4
147 29 34 15 70 37 79 47 9 11 24 19 33 19 30 0 253 -89 386 -154 72 -35 177
-95 235 -133 111 -74 210 -158 175 -149 -11 3 -166 46 -343 96 -178 49 -337
90 -353 90 -37 0 -51 -23 -80 -125 -12 -44 -26 -84 -30 -89 -4 -5 -92 -5 -201
-1 l-193 7 -108 199 c-60 110 -117 204 -127 209 -11 6 -150 10 -347 10 -240 1
-323 4 -309 11 38 23 221 80 317 99 124 25 220 37 321 39 l76 1 26 -44z m598
-713 c21 -21 47 -56 58 -78 34 -70 27 -119 -41 -288 -34 -84 -65 -155 -69
-160 -3 -4 -54 0 -113 10 -83 13 -107 20 -107 32 0 9 9 75 20 146 11 72 20
140 20 153 0 30 -34 62 -66 62 -15 0 -106 -48 -222 -118 l-197 -118 -132 11
c-73 6 -135 14 -139 17 -10 10 16 136 30 148 7 5 116 59 242 120 l229 110 224
-5 225 -5 38 -37z m-402 -425 c-7 -51 -16 -97 -20 -101 -4 -5 -45 10 -90 33
-45 23 -79 44 -75 48 12 12 190 119 193 116 2 -1 -2 -45 -8 -96z m-488 -279
c-4 -3 -49 -32 -100 -64 -114 -71 -135 -101 -112 -168 11 -31 25 -47 51 -61
l36 -20 284 38 c156 21 296 44 311 52 31 16 58 61 58 96 0 13 -16 49 -35 81
-19 31 -32 57 -30 57 2 0 20 -7 39 -17 33 -15 42 -31 156 -299 l122 -282 -17
-89 c-8 -48 -20 -111 -26 -140 l-10 -51 -117 65 c-403 226 -807 493 -1105 730
-118 95 -137 116 -137 151 0 46 31 63 215 117 l180 54 122 -122 c68 -67 119
-124 115 -128z m170 202 c12 -11 197 -305 194 -308 -4 -4 -294 -43 -319 -43
-14 0 7 19 59 53 69 46 79 56 82 85 3 30 -6 43 -95 134 l-98 100 85 -7 c47 -4
88 -10 92 -14z m604 -162 l61 -11 122 -268 c66 -147 121 -272 121 -278 0 -13
-192 -304 -197 -299 -2 3 6 59 18 126 l23 121 -132 307 c-73 170 -132 312
-132 316 0 5 12 6 28 3 15 -3 54 -10 88 -17z m574 -552 c385 -256 741 -557
867 -735 54 -74 80 -139 63 -156 -20 -19 -205 -12 -305 12 -202 50 -511 165
-780 292 -60 28 -141 65 -178 83 -39 17 -66 36 -63 42 2 7 59 94 125 194 66
100 124 193 127 206 7 30 1 123 -11 149 -10 24 -17 28 155 -87z"/>
</g>
</svg>
